<?xml version="1.0" standalone="no"?>
<!DOCTYPE svg PUBLIC "-//W3C//DTD SVG 20010904//EN"
 "http://www.w3.org/TR/2001/REC-SVG-20010904/DTD/svg10.dtd">
<svg version="1.0" xmlns="http://www.w3.org/2000/svg"
 width="256.000000pt" height="256.000000pt" viewBox="0 0 256.000000 256.000000"
 preserveAspectRatio="xMidYMid meet">

<g transform="translate(0.000000,256.000000) scale(0.100000,-0.100000)"
fill="#000000" stroke="none">
<path d="M420 2310 l0 -170 -170 0 -170 0 0 -860 0 -860 170 0 170 0 0 -170 0
-170 685 0 685 0 0 170 0 170 175 0 175 0 0 175 0 175 170 0 170 0 0 510 0
510 -170 0 -170 0 0 175 0 175 -175 0 -175 0 0 170 0 170 -685 0 -685 0 0
-170z m1370 -345 l0 -175 175 0 175 0 0 -510 0 -510 -175 0 -175 0 0 -175 0
-175 -510 0 -510 0 0 860 0 860 510 0 510 0 0 -175z"/>
<path d="M1110 1280 l0 -510 340 0 340 0 0 510 0 510 -340 0 -340 0 0 -510z"/>
</g>
</svg>
